<?xml version="1.0" encoding="utf-8"?>
<!-- Generator: Adobe Illustrator 15.0.0, SVG Export Plug-In . SVG Version: 6.00 Build 0)  -->
<!DOCTYPE svg PUBLIC "-//W3C//DTD SVG 1.1//EN" "http://www.w3.org/Graphics/SVG/1.1/DTD/svg11.dtd">
<svg version="1.1" id="Layer_1" xmlns="http://www.w3.org/2000/svg" xmlns:xlink="http://www.w3.org/1999/xlink" x="0px" y="0px"
	 width="1505.699px" height="1547.691px" viewBox="0 0 1505.699 1547.691" enable-background="new 0 0 1505.699 1547.691"
	 xml:space="preserve">
<g>
	<path fill-rule="evenodd" clip-rule="evenodd" fill="#F19533" d="M218.033,481.536
		c254.394-351.747,640.812-506.734,862.895-346.114c206.795,149.563,198.306,520.072-9.192,854.359L855.313,837.538h-0.02
		c100.949-194.465,95.961-397.26-22.854-483.188c-138.681-100.293-379.933-3.531-538.771,216.084
		c-158.835,219.635-175.186,479.051-36.524,579.325c74.535,53.924,178.726,50.878,283.813,2.438l157.827,215.956
		c-195.623,118.511-399.813,142.104-539.253,41.279C-62.557,1248.783-36.348,833.271,218.033,481.536z"/>
	<polygon fill-rule="evenodd" clip-rule="evenodd" fill="#F19533" points="331.614,617.603 1494.965,1458.992 933.2,1464.547 	"/>
</g>
</svg>
